<svg width="45" height="57" xmlns="http://www.w3.org/2000/svg"><g fill="#fff" fill-rule="evenodd"><path d="M30.361 25.304a.998.998 0 0 0 1.268-.626 1.763 1.763 0 0 1 2.232-1.1 3.766 3.766 0 0 0 4.768-2.352 1 1 0 1 0-1.894-.642 1.759 1.759 0 0 1-2.232 1.099 3.77 3.77 0 0 0-4.768 2.352 1.002 1.002 0 0 0 .626 1.269m2.366-6.968a1.001 1.001 0 0 0 1.268-.626 1.75 1.75 0 0 1 .887-1.013 1.75 1.75 0 0 1 1.345-.087 3.765 3.765 0 0 0 4.768-2.352 1.002 1.002 0 0 0-.626-1.269.998.998 0 0 0-1.268.626 1.76 1.76 0 0 1-2.232 1.101 3.729 3.729 0 0 0-2.871.187 3.74 3.74 0 0 0-1.897 2.164 1 1 0 0 0 .626 1.269m2.364-6.968a1 1 0 0 0 1.269-.626 1.3 1.3 0 0 1 1.648-.812 3.29 3.29 0 0 0 2.521-.164 3.278 3.278 0 0 0 1.664-1.9 1 1 0 1 0-1.893-.642 1.295 1.295 0 0 1-1.649.811 3.309 3.309 0 0 0-4.185 2.064 1.001 1.001 0 0 0 .625 1.269"/><path d="M41.763 25.026c1.988-6.46 3.079-12.79 3.235-18.817.045-1.728-.708-3.692-1.871-4.886-1.389-1.425-3.279-1.716-5.143-.756-2.987 1.541-5.123 6.074-6.839 9.718l-.292.618a5.79 5.79 0 0 0-3.169-4.012 4.769 4.769 0 0 0-3.707-3.686 3.478 3.478 0 0 0-.076-.309C23.52 1.595 22.37.614 21.042.456a3.364 3.364 0 0 0-2.126.435 3.646 3.646 0 0 0-1.768-.459 3.683 3.683 0 0 0-3.58 2.835c-1.901.518-3.296 2.263-3.31 4.291a5 5 0 0 0-3.409 6.658 3.927 3.927 0 0 0-.549 4.041c-.999-1.09-2.404-1.981-3.984-1.923a1 1 0 0 0 .031 2c.033.001.065-.002.096-.002.937 0 1.808.62 2.442 1.339-1.586.458-3.498 1.201-4.39 2.884-.535 1.011-.599 2.251-.245 3.671a1.73 1.73 0 0 0-.247.998l1.703 24.187a5.696 5.696 0 0 0 5.691 5.408h28.071c3.036 0 5.536-2.375 5.691-5.389l1.746-25.046a1.327 1.327 0 0 0-.359-.974 1.322 1.322 0 0 0-.783-.384zM31.669 13.764c.396-.74.828-1.656 1.286-2.626 1.503-3.193 3.562-7.564 5.946-8.793 1.08-.556 2.003-.436 2.793.374.891.914 1.331 2.422 1.305 3.438-.153 5.912-1.233 12.134-3.211 18.494-.065.209-.209.631-.414 1.211l-1.704.757a.93.93 0 0 0-.108.057 3.174 3.174 0 0 1-1.596.438 3.17 3.17 0 0 1-1.595-.438l-.713-.428A5.162 5.162 0 0 0 31 25.512c-.253 0-.504.022-.752.058a5.117 5.117 0 0 0-1.974.678l-.712.428c-.389.233-.83.347-1.277.396.022-.076.047-.149.069-.224.277-.944.576-1.876.888-2.799a69.795 69.795 0 0 1 1.169-3.187c.12-.308.237-.618.362-.923a66.213 66.213 0 0 1 2.896-6.175zM20.116 25.595c-.11.019-.219.039-.327.065a5.14 5.14 0 0 0-.965.309l-.191-.877c.288.024.574.048.844.048 1.744 0 3.148-.519 4.762-1.667a12.34 12.34 0 0 1 1.386-.863c-.091.26-.183.521-.272.783-.063.188-.132.373-.195.562-.294.89-.574 1.786-.835 2.691l-.665-.398A5.165 5.165 0 0 0 21 25.512c-.242 0-.481.023-.719.056-.056.007-.11.019-.165.027zm-1.589-13.516a.422.422 0 0 1-.492-.316.42.42 0 0 1 .316-.493l5.609-1.216a.41.41 0 1 1 .348.636.41.41 0 0 1-.258.181l-5.523 1.208zm.394 4.056c.117-.151.231-.296.341-.443.079-.105.149-.214.206-.323.247-.463.304-.982.19-1.491l4.174-.912c.028.128.057.255.105.373.187.458.521.839.987 1.105.152.084.311.168.474.255.135.071.271.145.406.219.065.035.131.07.196.107.119.066.233.141.349.213a5.124 5.124 0 0 1 .886.683c.095.093.189.188.276.292.154.184.302.375.424.604a70.4 70.4 0 0 0-1.209 2.855c-.06.148-.124.293-.183.443-1.096.278-2.155.798-3.463 1.729-1.648 1.171-2.875 1.481-4.897 1.188l-.607-2.778c-.411-1.88.482-3.018 1.345-4.119zM13 41a1 1 0 1 1 0 2H6a1 1 0 1 1 0-2h7zm-7 4h9a1 1 0 1 1 0 2H6a1 1 0 1 1 0-2zm2.687-29.812l.654-.54-.425-.733A3.006 3.006 0 0 1 11.398 9.4l1.215-.051-.283-1.181a2.464 2.464 0 0 1-.072-.578 2.49 2.49 0 0 1 2.29-2.471l.924-.07v-.995c.028-.9.77-1.622 1.676-1.622.522 0 .896.238 1.117.438l.701.633.673-.664c.307-.304.72-.452 1.167-.397.535.064 1.019.482 1.176 1.018.053.18.068.353.047.531l-.117 1.117h1.127a2.753 2.753 0 0 1 2.737 2.557l.046.657.621.218a3.812 3.812 0 0 1 2.556 3.683 3.612 3.612 0 0 1-.656 1.985c-.669-.569-1.39-.952-1.997-1.271-.157-.083-.309-.163-.462-.248-.043-.024-.094-.066-.112-.171a.564.564 0 0 1 .139-.444 2.143 2.143 0 0 0 .469-1.847l-.12-.55c-.245-1.121-1.416-1.878-2.537-1.627l-.268.058-.009.001-2.935.642-2.864.626a2.134 2.134 0 0 0-1.627 2.538l.06.272.001.003.001.004.059.271a2.13 2.13 0 0 0 1.237 1.497.6.6 0 0 1 .33.323c.027.074.012.112-.046.208-.1.133-.206.269-.315.407-.111.141-.226.29-.343.444l-.106.144a14.03 14.03 0 0 0-.257.36 8.176 8.176 0 0 0-.473.775 6.666 6.666 0 0 0-.212.441c-.027.063-.058.123-.084.187a5.72 5.72 0 0 0-.229.688c-.009.036-.013.075-.021.111a5.35 5.35 0 0 0-.113.641c-.01.088-.012.18-.018.271-.007.118-.023.231-.023.353-.028-.038-.057-.069-.086-.107-.065-.085-.132-.164-.198-.246a10.798 10.798 0 0 0-.445-.519c-.074-.08-.147-.16-.221-.235a7.747 7.747 0 0 0-.474-.444c-.059-.051-.117-.109-.176-.157a6.246 6.246 0 0 0-.639-.456c-.065-.041-.131-.071-.196-.107a4.862 4.862 0 0 0-.468-.234 3.742 3.742 0 0 0-.26-.099 4.214 4.214 0 0 0-.43-.127c-.087-.02-.174-.044-.261-.059a4.214 4.214 0 0 0-.549-.052c-.043-.001-.084-.012-.127-.012-1.039 0-1.985.405-2.824.952a1.942 1.942 0 0 1 .573-2.225zm-6.425 8.303c.423-.797 1.45-1.405 3.233-1.915a5.38 5.38 0 0 0 2.236-1.283c.28-.268.544-.498.798-.705.227-.186.446-.347.657-.486l.024-.015c.418-.272.805-.453 1.169-.546l.044-.011c.178-.042.351-.066.518-.066 1.258 0 2.607 1.255 4.01 3.73.735 1.297.98 3.212.661 4.882a3.111 3.111 0 0 1-1.241-.4l-.713-.428A5.165 5.165 0 0 0 11 25.512c-.253 0-.504.022-.752.058a5.117 5.117 0 0 0-1.974.678l-.346.208a3.882 3.882 0 0 1-1.962.54 3.879 3.879 0 0 1-1.961-.54l-1.347-.809a1.75 1.75 0 0 0-.564-.214c-.158-.792-.102-1.432.168-1.942zM17 51H6a1 1 0 1 1 0-2h11a1 1 0 1 1 0 2zm6 0h-2a1 1 0 1 1 0-2h2a1 1 0 1 1 0 2z"/></g></svg>